# xmcd
#
# Track frame offsets: 
#        150
#        20357
#        37046
#        55660
#        71395
#        88180
#        105174
#        119477
#        136894
#        152821
#        170277
#        186368
#        202207
#        217992
#
# Disc length: 3121 seconds
#
# Revision: 1
# Processed by: cddbd v1.5.2PL0 Copyright (c) Steve Scherf et al.
# Submitted via: ExactAudioCopyFreeDBPlugin 1.0
#
DISCID=c00c2f0e
DTITLE=Ataíde and Alexandre - Popularidade
DYEAR=1900
DGENRE=Sertanejo
TTITLE0=Doces Palabras
TTITLE1=Você Marcou Pra Mim
TTITLE2=Táxi
TTITLE3=A Que Ponto Cheguei
TTITLE4=Madrugada  Amiga
TTITLE5=De Mão Beijada
TTITLE6=Luzes Da Ribalta
TTITLE7=Rosas E Versos
TTITLE8=Não Consigo Te Trair
TTITLE9=Basta Você Voltar
TTITLE10=As Avenidas
TTITLE11=O Seu Retrato
TTITLE12=Hino Ao Amor
TTITLE13=Chora Minha Viola
EXTD=
EXTT0=
EXTT1=
EXTT2=
EXTT3=
EXTT4=
EXTT5=
EXTT6=
EXTT7=
EXTT8=
EXTT9=
EXTT10=
EXTT11=
EXTT12=
EXTT13=
PLAYORDER=
